<svg xmlns="http://www.w3.org/2000/svg" width="3840" height="2160" viewBox="0 0 3840 2160">
<rect width="3840" height="2160" fill="#070B20"/>
<g stroke="#8060C0" stroke-width="6" fill="none" opacity=".23"><path d="M0 404 H430 V682 H855 M0 1580 H515 V1318 H1000 M3840 460 H3410 V755 H2995 M3840 1676 H3370 V1390 H2940"/><path d="M155 0 V203 H808 V498 M3685 2160 V1957 H3032 V1662"/></g>
<g transform="translate(896 56) scale(2)"><defs>
<radialGradient id="bg" cx="48%" cy="38%" r="74%"><stop stop-color="#38214D"/><stop offset=".56" stop-color="#15122C"/><stop offset="1" stop-color="#070B20"/></radialGradient>
<linearGradient id="edge" x1="0" y1="0" x2="1" y2="1"><stop stop-color="#FFDB94"/><stop offset=".48" stop-color="#6E508B"/><stop offset="1" stop-color="#FF97BF"/></linearGradient>
<linearGradient id="metal" x1="0" y1="0" x2=".7" y2="1"><stop stop-color="#FFFBEF"/><stop offset=".5" stop-color="#FFDB94"/><stop offset="1" stop-color="#FF97BF"/></linearGradient>
<radialGradient id="orb" cx="33%" cy="23%" r="81%"><stop stop-color="#E9A6FF"/><stop offset=".26" stop-color="#B42AFF"/><stop offset=".59" stop-color="#5E00D2"/><stop offset=".79" stop-color="#E432BC"/><stop offset="1" stop-color="#FF6B88"/></radialGradient>
</defs>
<rect width="1024" height="1024" fill="url(#bg)"/>
<g fill="none" stroke="#9873C7" stroke-width="3" opacity=".12"><path d="M0 205 H205 V80 H800 V247 H1024 M0 793 H165 V916 H835 V782 H1024 M102 0 V110 H295 M1024 504 H908 V362 H842 M0 540 H124 V682 H187"/></g>
<circle cx="512" cy="512" r="390" fill="none" stroke="url(#edge)" stroke-width="4" opacity=".55"/>
<circle cx="512" cy="512" r="365" fill="none" stroke="url(#edge)" stroke-width="2" opacity=".24"/>
<path d="M190 292 A388 388 0 0 1 530 124" fill="none" stroke="#FFDB94" stroke-width="8" stroke-linecap="round"/>
<path d="M834 732 A388 388 0 0 1 494 900" fill="none" stroke="#FF97BF" stroke-width="8" stroke-linecap="round"/>
<g stroke="url(#metal)" stroke-width="23" stroke-linecap="round"><path d="M692.0 474.0 L724.0 474.0"/><path d="M667.9 564.0 L695.6 580.0"/><path d="M602.0 629.9 L618.0 657.6"/><path d="M512.0 654.0 L512.0 686.0"/><path d="M422.0 629.9 L406.0 657.6"/><path d="M356.1 564.0 L328.4 580.0"/><path d="M332.0 474.0 L300.0 474.0"/><path d="M356.1 384.0 L328.4 368.0"/><path d="M422.0 318.1 L406.0 290.4"/><path d="M512.0 294.0 L512.0 262.0"/><path d="M602.0 318.1 L618.0 290.4"/><path d="M667.9 384.0 L695.6 368.0"/></g><circle cx="512" cy="492" r="144" fill="#07081B" opacity=".45"/><circle cx="512" cy="474" r="132" fill="url(#orb)" stroke="#EED8FF" stroke-width="5"/><ellipse cx="472.4" cy="415.92" rx="33.0" ry="18.48" transform="rotate(-28 472.4 415.92)" fill="#FFFFFF" opacity=".88"/>
<g fill="url(#metal)"><polygon points="297.0,215.0 300.5,224.1 310.3,224.7 302.7,230.9 305.2,240.3 297.0,235.0 288.8,240.3 291.3,230.9 283.7,224.7 293.5,224.1"/><polygon points="761.0,664.0 764.5,674.1 775.3,674.4 766.7,680.9 769.8,691.1 761.0,685.0 752.2,691.1 755.3,680.9 746.7,674.4 757.5,674.1"/><polygon points="237.0,673.0 239.4,679.8 246.5,679.9 240.8,684.2 242.9,691.1 237.0,687.0 231.1,691.1 233.2,684.2 227.5,679.9 234.6,679.8"/></g>
</g>
</svg>